<mxfile host="app.diagrams.net" agent="Mozilla/5.0 (Macintosh; Intel Mac OS X 10_15_7) AppleWebKit/537.36 (KHTML, like Gecko) Chrome/128.0.0.0 Safari/537.36" version="24.7.16">
  <diagram name="Page-1" id="4oxjagK1qWpSOyXhxGv7">
    <mxGraphModel dx="954" dy="587" grid="1" gridSize="10" guides="1" tooltips="1" connect="1" arrows="1" fold="1" page="1" pageScale="1" pageWidth="850" pageHeight="1100" background="#ffffff" math="0" shadow="0">
      <root>
        <mxCell id="0" />
        <mxCell id="1" parent="0" />
        <mxCell id="RRTjD8gpUdmGmn5Dp0Pn-3" value="" style="edgeStyle=orthogonalEdgeStyle;rounded=0;orthogonalLoop=1;jettySize=auto;html=1;" edge="1" parent="1" source="RRTjD8gpUdmGmn5Dp0Pn-10" target="RRTjD8gpUdmGmn5Dp0Pn-2">
          <mxGeometry relative="1" as="geometry">
            <mxPoint x="110" y="130" as="sourcePoint" />
          </mxGeometry>
        </mxCell>
        <mxCell id="RRTjD8gpUdmGmn5Dp0Pn-7" style="edgeStyle=orthogonalEdgeStyle;rounded=0;orthogonalLoop=1;jettySize=auto;html=1;" edge="1" parent="1" source="RRTjD8gpUdmGmn5Dp0Pn-14" target="RRTjD8gpUdmGmn5Dp0Pn-6">
          <mxGeometry relative="1" as="geometry">
            <mxPoint x="335" y="60" as="sourcePoint" />
          </mxGeometry>
        </mxCell>
        <mxCell id="RRTjD8gpUdmGmn5Dp0Pn-5" value="" style="edgeStyle=orthogonalEdgeStyle;rounded=0;orthogonalLoop=1;jettySize=auto;html=1;" edge="1" parent="1" source="RRTjD8gpUdmGmn5Dp0Pn-2" target="RRTjD8gpUdmGmn5Dp0Pn-4">
          <mxGeometry relative="1" as="geometry" />
        </mxCell>
        <mxCell id="RRTjD8gpUdmGmn5Dp0Pn-2" value="Business Owner Registration" style="rounded=1;whiteSpace=wrap;html=1;" vertex="1" parent="1">
          <mxGeometry x="50" y="190" width="120" height="60" as="geometry" />
        </mxCell>
        <mxCell id="RRTjD8gpUdmGmn5Dp0Pn-4" value="&lt;ol&gt;&lt;li&gt;First name&lt;/li&gt;&lt;li&gt;Last name&lt;/li&gt;&lt;li&gt;Email&lt;/li&gt;&lt;li&gt;Phone&lt;/li&gt;&lt;li&gt;Business name&lt;/li&gt;&lt;li&gt;Business address&lt;/li&gt;&lt;/ol&gt;" style="shape=process;whiteSpace=wrap;html=1;backgroundOutline=1;align=left;" vertex="1" parent="1">
          <mxGeometry x="5" y="340" width="210" height="150" as="geometry" />
        </mxCell>
        <mxCell id="RRTjD8gpUdmGmn5Dp0Pn-6" value="Banker Registration" style="rounded=1;whiteSpace=wrap;html=1;" vertex="1" parent="1">
          <mxGeometry x="365" y="200" width="120" height="60" as="geometry" />
        </mxCell>
        <mxCell id="RRTjD8gpUdmGmn5Dp0Pn-8" value="&lt;ol&gt;&lt;li&gt;First name&lt;/li&gt;&lt;li&gt;Last name&lt;/li&gt;&lt;li&gt;Email&lt;/li&gt;&lt;li&gt;Phone&lt;/li&gt;&lt;li&gt;Business name&lt;/li&gt;&lt;li&gt;Specialized industry&lt;/li&gt;&lt;/ol&gt;" style="shape=process;whiteSpace=wrap;html=1;backgroundOutline=1;align=left;" vertex="1" parent="1">
          <mxGeometry x="335" y="340" width="210" height="150" as="geometry" />
        </mxCell>
        <mxCell id="RRTjD8gpUdmGmn5Dp0Pn-9" style="edgeStyle=orthogonalEdgeStyle;rounded=0;orthogonalLoop=1;jettySize=auto;html=1;entryX=0.433;entryY=0.007;entryDx=0;entryDy=0;entryPerimeter=0;" edge="1" parent="1" source="RRTjD8gpUdmGmn5Dp0Pn-6" target="RRTjD8gpUdmGmn5Dp0Pn-8">
          <mxGeometry relative="1" as="geometry" />
        </mxCell>
        <mxCell id="RRTjD8gpUdmGmn5Dp0Pn-10" value="&lt;font style=&quot;font-size: 16px;&quot;&gt;Business Owner&lt;/font&gt;" style="shape=umlActor;verticalLabelPosition=bottom;verticalAlign=top;html=1;outlineConnect=0;fillColor=#dae8fc;strokeColor=#6c8ebf;" vertex="1" parent="1">
          <mxGeometry x="95" y="10" width="30" height="60" as="geometry" />
        </mxCell>
        <mxCell id="RRTjD8gpUdmGmn5Dp0Pn-14" value="&lt;font style=&quot;font-size: 16px;&quot;&gt;Banker&lt;/font&gt;" style="shape=umlActor;verticalLabelPosition=bottom;verticalAlign=top;html=1;outlineConnect=0;fillColor=#e1d5e7;strokeColor=#9673a6;" vertex="1" parent="1">
          <mxGeometry x="410" y="20" width="30" height="60" as="geometry" />
        </mxCell>
        <mxCell id="RRTjD8gpUdmGmn5Dp0Pn-17" value="&lt;table style=&quot;font-size: 10px;&quot;&gt;&lt;tbody&gt;&lt;tr&gt;&lt;td&gt;&lt;table style=&quot;border-collapse: collapse; width: 227pt;&quot; width=&quot;303&quot; cellspacing=&quot;0&quot; cellpadding=&quot;0&quot; border=&quot;0&quot;&gt;&lt;colgroup&gt;&lt;col style=&quot;width: 227pt;&quot; width=&quot;303&quot;&gt;&lt;/colgroup&gt;&lt;tbody&gt;&lt;tr style=&quot;height: 17pt;&quot; height=&quot;23&quot;&gt;&lt;td style=&quot;padding-top: 1px; padding-right: 1px; padding-left: 1px; font-family: &amp;quot;Aptos Narrow&amp;quot;, sans-serif; vertical-align: top; border-top: 0.5pt solid black; border-right: 0.5pt solid black; border-bottom: none; border-left: 0.5pt solid black; border-image: initial; height: 17pt; width: 227pt;&quot; width=&quot;303&quot; class=&quot;xl65&quot; height=&quot;23&quot;&gt;Agriculture, Forestry, Fishing, Hunting&lt;/td&gt;&lt;/tr&gt;&lt;tr style=&quot;height: 17pt;&quot; height=&quot;23&quot;&gt;&lt;td style=&quot;padding-top: 1px; padding-right: 1px; padding-left: 1px; font-family: &amp;quot;Aptos Narrow&amp;quot;, sans-serif; vertical-align: top; border-top: 0.5pt solid black; border-right: 0.5pt solid black; border-bottom: none; border-left: 0.5pt solid black; border-image: initial; height: 17pt; width: 227pt;&quot; width=&quot;303&quot; class=&quot;xl65&quot; height=&quot;23&quot;&gt;Mining, Quarrying, and Oil and Gas Extraction&lt;/td&gt;&lt;/tr&gt;&lt;tr style=&quot;height: 17pt;&quot; height=&quot;23&quot;&gt;&lt;td style=&quot;padding-top: 1px; padding-right: 1px; padding-left: 1px; font-family: &amp;quot;Aptos Narrow&amp;quot;, sans-serif; vertical-align: top; border-top: 0.5pt solid black; border-right: 0.5pt solid black; border-bottom: none; border-left: 0.5pt solid black; border-image: initial; height: 17pt; width: 227pt;&quot; width=&quot;303&quot; class=&quot;xl65&quot; height=&quot;23&quot;&gt;Utilities&lt;/td&gt;&lt;/tr&gt;&lt;tr style=&quot;height: 17pt;&quot; height=&quot;23&quot;&gt;&lt;td style=&quot;padding-top: 1px; padding-right: 1px; padding-left: 1px; font-family: &amp;quot;Aptos Narrow&amp;quot;, sans-serif; vertical-align: top; border-top: 0.5pt solid black; border-right: 0.5pt solid black; border-bottom: none; border-left: 0.5pt solid black; border-image: initial; background: rgb(193, 240, 200); height: 17pt; width: 227pt;&quot; width=&quot;303&quot; class=&quot;xl67&quot; height=&quot;23&quot;&gt;Construction&lt;/td&gt;&lt;/tr&gt;&lt;tr style=&quot;height: 17pt;&quot; height=&quot;23&quot;&gt;&lt;td style=&quot;padding-top: 1px; padding-right: 1px; padding-left: 1px; font-family: &amp;quot;Aptos Narrow&amp;quot;, sans-serif; vertical-align: top; border-top: 0.5pt solid black; border-right: 0.5pt solid black; border-bottom: none; border-left: 0.5pt solid black; border-image: initial; height: 17pt; width: 227pt;&quot; width=&quot;303&quot; class=&quot;xl65&quot; height=&quot;23&quot;&gt;Manufacturing&lt;/td&gt;&lt;/tr&gt;&lt;tr style=&quot;height: 17pt;&quot; height=&quot;23&quot;&gt;&lt;td style=&quot;padding-top: 1px; padding-right: 1px; padding-left: 1px; font-family: &amp;quot;Aptos Narrow&amp;quot;, sans-serif; vertical-align: top; border-top: 0.5pt solid black; border-right: 0.5pt solid black; border-bottom: none; border-left: 0.5pt solid black; border-image: initial; height: 17pt; width: 227pt;&quot; width=&quot;303&quot; class=&quot;xl65&quot; height=&quot;23&quot;&gt;Wholesale Trade&lt;/td&gt;&lt;/tr&gt;&lt;tr style=&quot;height: 17pt;&quot; height=&quot;23&quot;&gt;&lt;td style=&quot;padding-top: 1px; padding-right: 1px; padding-left: 1px; font-family: &amp;quot;Aptos Narrow&amp;quot;, sans-serif; vertical-align: top; border-top: 0.5pt solid black; border-right: 0.5pt solid black; border-bottom: none; border-left: 0.5pt solid black; border-image: initial; height: 17pt; width: 227pt;&quot; width=&quot;303&quot; class=&quot;xl65&quot; height=&quot;23&quot;&gt;Retail Trade&lt;/td&gt;&lt;/tr&gt;&lt;tr style=&quot;height: 17pt;&quot; height=&quot;23&quot;&gt;&lt;td style=&quot;padding-top: 1px; padding-right: 1px; padding-left: 1px; font-family: &amp;quot;Aptos Narrow&amp;quot;, sans-serif; vertical-align: top; border-top: 0.5pt solid black; border-right: 0.5pt solid black; border-bottom: none; border-left: 0.5pt solid black; border-image: initial; height: 17pt; width: 227pt;&quot; width=&quot;303&quot; class=&quot;xl65&quot; height=&quot;23&quot;&gt;Transportation and Warehousing&lt;/td&gt;&lt;/tr&gt;&lt;tr style=&quot;height: 17pt;&quot; height=&quot;23&quot;&gt;&lt;td style=&quot;padding-top: 1px; padding-right: 1px; padding-left: 1px; font-family: &amp;quot;Aptos Narrow&amp;quot;, sans-serif; vertical-align: top; border-top: 0.5pt solid black; border-right: 0.5pt solid black; border-bottom: none; border-left: 0.5pt solid black; border-image: initial; height: 17pt; width: 227pt;&quot; width=&quot;303&quot; class=&quot;xl65&quot; height=&quot;23&quot;&gt;Information Technology&lt;/td&gt;&lt;/tr&gt;&lt;tr style=&quot;height: 17pt;&quot; height=&quot;23&quot;&gt;&lt;td style=&quot;padding-top: 1px; padding-right: 1px; padding-left: 1px; font-family: &amp;quot;Aptos Narrow&amp;quot;, sans-serif; vertical-align: top; border-top: 0.5pt solid black; border-right: 0.5pt solid black; border-bottom: none; border-left: 0.5pt solid black; border-image: initial; height: 17pt; width: 227pt;&quot; width=&quot;303&quot; class=&quot;xl65&quot; height=&quot;23&quot;&gt;Finance and Insurance&lt;/td&gt;&lt;/tr&gt;&lt;tr style=&quot;height: 16pt;&quot; height=&quot;21&quot;&gt;&lt;td style=&quot;padding-top: 1px; padding-right: 1px; padding-left: 1px; font-family: &amp;quot;Aptos Narrow&amp;quot;, sans-serif; vertical-align: top; border-top: 0.5pt solid black; border-right: 0.5pt solid black; border-bottom: none; border-left: 0.5pt solid black; border-image: initial; height: 16pt; width: 227pt;&quot; width=&quot;303&quot; class=&quot;xl65&quot; height=&quot;21&quot;&gt;Real Estate Rental and Leasing&lt;/td&gt;&lt;/tr&gt;&lt;tr style=&quot;height: 16pt;&quot; height=&quot;21&quot;&gt;&lt;td style=&quot;padding-top: 1px; padding-right: 1px; padding-left: 1px; font-family: &amp;quot;Aptos Narrow&amp;quot;, sans-serif; vertical-align: top; border-top: 0.5pt solid black; border-right: 0.5pt solid black; border-bottom: none; border-left: 0.5pt solid black; border-image: initial; height: 16pt; width: 227pt;&quot; width=&quot;303&quot; class=&quot;xl65&quot; height=&quot;21&quot;&gt;Professional, Scientific, and Technical Services&lt;/td&gt;&lt;/tr&gt;&lt;tr style=&quot;height: 16pt;&quot; height=&quot;21&quot;&gt;&lt;td style=&quot;padding-top: 1px; padding-right: 1px; padding-left: 1px; font-family: &amp;quot;Aptos Narrow&amp;quot;, sans-serif; vertical-align: top; border-top: 0.5pt solid black; border-right: 0.5pt solid black; border-bottom: none; border-left: 0.5pt solid black; border-image: initial; height: 16pt; width: 227pt;&quot; width=&quot;303&quot; class=&quot;xl65&quot; height=&quot;21&quot;&gt;Management of Companies and Enterprises&lt;/td&gt;&lt;/tr&gt;&lt;tr style=&quot;height: 32pt;&quot; height=&quot;43&quot;&gt;&lt;td style=&quot;padding-top: 1px; padding-right: 1px; padding-left: 1px; font-family: &amp;quot;Aptos Narrow&amp;quot;, sans-serif; vertical-align: top; border-top: 0.5pt solid black; border-right: 0.5pt solid black; border-bottom: none; border-left: 0.5pt solid black; border-image: initial; height: 32pt; width: 227pt;&quot; width=&quot;303&quot; class=&quot;xl65&quot; height=&quot;43&quot;&gt;Administrative , Support, Waste Management, and Remediation Services&amp;nbsp;&lt;/td&gt;&lt;/tr&gt;&lt;tr style=&quot;height: 16pt;&quot; height=&quot;21&quot;&gt;&lt;td style=&quot;padding-top: 1px; padding-right: 1px; padding-left: 1px; font-family: &amp;quot;Aptos Narrow&amp;quot;, sans-serif; vertical-align: top; border-top: 0.5pt solid black; border-right: 0.5pt solid black; border-bottom: none; border-left: 0.5pt solid black; border-image: initial; height: 16pt; width: 227pt;&quot; width=&quot;303&quot; class=&quot;xl65&quot; height=&quot;21&quot;&gt;Educational Services&lt;/td&gt;&lt;/tr&gt;&lt;tr style=&quot;height: 16pt;&quot; height=&quot;21&quot;&gt;&lt;td style=&quot;padding-top: 1px; padding-right: 1px; padding-left: 1px; font-family: &amp;quot;Aptos Narrow&amp;quot;, sans-serif; vertical-align: top; border-top: 0.5pt solid black; border-right: 0.5pt solid black; border-bottom: none; border-left: 0.5pt solid black; border-image: initial; height: 16pt; width: 227pt;&quot; width=&quot;303&quot; class=&quot;xl65&quot; height=&quot;21&quot;&gt;Health Care and Social Assistance&amp;nbsp;&lt;/td&gt;&lt;/tr&gt;&lt;tr style=&quot;height: 16pt;&quot; height=&quot;21&quot;&gt;&lt;td style=&quot;padding-top: 1px; padding-right: 1px; padding-left: 1px; font-family: &amp;quot;Aptos Narrow&amp;quot;, sans-serif; vertical-align: top; border-top: 0.5pt solid black; border-right: 0.5pt solid black; border-bottom: none; border-left: 0.5pt solid black; border-image: initial; height: 16pt; width: 227pt;&quot; width=&quot;303&quot; class=&quot;xl65&quot; height=&quot;21&quot;&gt;Arts, Entertainment, and Recreation&lt;/td&gt;&lt;/tr&gt;&lt;tr style=&quot;height: 16pt;&quot; height=&quot;21&quot;&gt;&lt;td style=&quot;padding-top: 1px; padding-right: 1px; padding-left: 1px; font-family: &amp;quot;Aptos Narrow&amp;quot;, sans-serif; vertical-align: top; border-top: 0.5pt solid black; border-right: 0.5pt solid black; border-bottom: none; border-left: 0.5pt solid black; border-image: initial; height: 16pt; width: 227pt;&quot; width=&quot;303&quot; class=&quot;xl65&quot; height=&quot;21&quot;&gt;Other Services(except Public Administration&lt;/td&gt;&lt;/tr&gt;&lt;tr style=&quot;height: 16pt;&quot; height=&quot;21&quot;&gt;&lt;td style=&quot;padding-top: 1px; padding-right: 1px; padding-left: 1px; font-family: &amp;quot;Aptos Narrow&amp;quot;, sans-serif; vertical-align: top; border-top: 0.5pt solid black; border-right: 0.5pt solid rgb(0, 176, 80); border-bottom: none; border-left: 0.5pt solid black; border-image: initial; height: 16pt; width: 227pt;&quot; width=&quot;303&quot; class=&quot;xl66&quot; height=&quot;21&quot;&gt;Public Administration&lt;/td&gt;&lt;/tr&gt;&lt;/tbody&gt;&lt;/table&gt;&lt;/td&gt;&lt;/tr&gt;&lt;tr&gt;&lt;td&gt;&lt;br&gt;&lt;/td&gt;&lt;/tr&gt;&lt;tr&gt;&lt;td&gt;&lt;br&gt;&lt;/td&gt;&lt;/tr&gt;&lt;/tbody&gt;&lt;/table&gt;" style="shape=process;whiteSpace=wrap;html=1;backgroundOutline=1;align=left;" vertex="1" parent="1">
          <mxGeometry x="280" y="540" width="430" height="540" as="geometry" />
        </mxCell>
      </root>
    </mxGraphModel>
  </diagram>
</mxfile>
